<?xml version="1.0" encoding="UTF-8"?>
<svg xmlns="http://www.w3.org/2000/svg" xmlns:xlink="http://www.w3.org/1999/xlink" viewBox="0 0 48 48" width="48px" height="48px">
<g id="surface179228413">
<path style=" stroke:none;fill-rule:nonzero;fill:rgb(1.176471%,60.784316%,89.803922%);fill-opacity:1;" d="M 24 5 C 13.507812 5 5 13.507812 5 24 C 5 34.492188 13.507812 43 24 43 C 34.492188 43 43 34.492188 43 24 C 43 13.507812 34.492188 5 24 5 Z M 24 5 "/>
<path style=" stroke:none;fill-rule:nonzero;fill:rgb(100%,100%,100%);fill-opacity:1;" d="M 26.570312 29.035156 L 31.488281 29.035156 L 32.261719 24.039062 L 26.570312 24.039062 L 26.570312 21.3125 C 26.570312 19.234375 27.25 17.394531 29.191406 17.394531 L 32.308594 17.394531 L 32.308594 13.035156 C 31.761719 12.964844 30.601562 12.800781 28.410156 12.800781 C 23.839844 12.800781 21.15625 15.214844 21.15625 20.71875 L 21.15625 24.039062 L 16.457031 24.039062 L 16.457031 29.035156 L 21.15625 29.035156 L 21.15625 42.765625 C 22.089844 42.90625 23.03125 43 24 43 C 24.875 43 25.730469 42.921875 26.570312 42.804688 Z M 26.570312 29.035156 "/>
</g>
</svg>
