<?xml version="1.0" encoding="utf-8"?>
<!-- Generator: Adobe Illustrator 16.0.0, SVG Export Plug-In . SVG Version: 6.00 Build 0)  -->
<!DOCTYPE svg PUBLIC "-//W3C//DTD SVG 1.1//EN" "http://www.w3.org/Graphics/SVG/1.1/DTD/svg11.dtd" [
	<!ENTITY ns_extend "http://ns.adobe.com/Extensibility/1.0/">
	<!ENTITY ns_ai "http://ns.adobe.com/AdobeIllustrator/10.0/">
	<!ENTITY ns_graphs "http://ns.adobe.com/Graphs/1.0/">
	<!ENTITY ns_vars "http://ns.adobe.com/Variables/1.0/">
	<!ENTITY ns_imrep "http://ns.adobe.com/ImageReplacement/1.0/">
	<!ENTITY ns_sfw "http://ns.adobe.com/SaveForWeb/1.0/">
	<!ENTITY ns_custom "http://ns.adobe.com/GenericCustomNamespace/1.0/">
	<!ENTITY ns_adobe_xpath "http://ns.adobe.com/XPath/1.0/">
]>
<svg version="1.1" id="Layer_1" xmlns:x="&ns_extend;" xmlns:i="&ns_ai;" xmlns:graph="&ns_graphs;"
	 xmlns="http://www.w3.org/2000/svg" xmlns:xlink="http://www.w3.org/1999/xlink" x="0px" y="0px" width="302px" height="68px"
	 viewBox="0 109.5 302 68" enable-background="new 0 109.5 302 68" xml:space="preserve">
<metadata>
	<sfw  xmlns="&ns_sfw;">
		<slices></slices>
		<sliceSourceBounds  width="301.399" height="176.165" x="148.7" y="157.668" bottomLeftOrigin="true"></sliceSourceBounds>
	</sfw>
</metadata>
<circle fill="#9CA3AF" cx="33.533" cy="143.499" r="33.333"/>
<path fill="#FFFFFF" d="M27.085,163.689c-0.561,0-0.84-0.26-0.84-0.779v-24.541c0-0.397,0.1-0.72,0.3-0.959
	c0.2-0.24,0.54-0.439,1.02-0.601c0.72-0.24,1.629-0.489,2.73-0.75c1.1-0.261,2.22-0.479,3.36-0.66s2.109-0.271,2.91-0.271
	c2.12,0,3.849,0.229,5.19,0.689c1.34,0.46,2.55,1.131,3.63,2.012c0.8-0.602,1.59-1.09,2.37-1.472c0.78-0.379,1.58-0.68,2.4-0.899
	c0.819-0.219,1.71-0.33,2.67-0.33c3.16,0,5.58,0.611,7.26,1.83c1.68,1.221,2.859,2.851,3.54,4.891c0.68,2.04,1.02,4.32,1.02,6.84
	c0,2.041-0.041,3.861-0.12,5.461c-0.081,1.6-0.19,3.1-0.33,4.5c-0.141,1.4-0.33,2.879-0.57,4.439c0,0.279-0.041,0.449-0.12,0.51
	c-0.081,0.061-0.22,0.09-0.42,0.09h-6.42c-0.24,0-0.39-0.068-0.45-0.209s-0.09-0.451-0.09-0.932c0.12-1.158,0.219-2.51,0.3-4.049
	c0.08-1.541,0.14-3.189,0.18-4.951c0.039-1.76,0.06-3.459,0.06-5.1c0-0.639-0.051-1.369-0.15-2.189c-0.1-0.82-0.3-1.619-0.6-2.4
	c-0.3-0.779-0.75-1.43-1.35-1.949c-0.6-0.519-1.401-0.781-2.4-0.781c-1.161,0-1.96,0.182-2.4,0.541s-0.66,0.939-0.66,1.74
	c0,1.721,0.009,3.4,0.03,5.039c0.02,1.641,0.03,3.25,0.03,4.83s-0.011,3.16-0.03,4.74c-0.021,1.58-0.03,3.189-0.03,4.83
	c0,0.561-0.261,0.84-0.78,0.84h-6.36c-0.36,0-0.54-0.199-0.54-0.6v-14.58c0-1.439-0.141-2.709-0.42-3.811
	c-0.28-1.101-0.771-1.97-1.47-2.609c-0.7-0.641-1.69-0.961-2.97-0.961c-0.36,0-0.711,0.031-1.05,0.09
	c-0.34,0.061-0.65,0.15-0.93,0.271c-0.48,0.16-0.72,0.5-0.72,1.02v20.221c0,0.641-0.261,0.961-0.78,0.961h-6V163.689z"/>
<path fill="#9CA3AF" d="M68.663,149.469c0-1.879,0.2-3.68,0.6-5.398c0.399-1.72,1.07-3.279,2.01-4.68
	c0.939-1.398,2.24-2.499,3.9-3.301c1.659-0.801,3.75-1.199,6.27-1.199c2.64,0,4.74,0.369,6.3,1.109s2.739,1.73,3.54,2.969
	c0.8,1.242,1.329,2.592,1.59,4.052c0.26,1.462,0.39,2.911,0.39,4.351c0,1.68-0.19,2.791-0.57,3.33
	c-0.381,0.539-0.971,0.811-1.77,0.811h-13.92c-0.24,0-0.39,0.051-0.45,0.15c-0.06,0.098-0.09,0.289-0.09,0.568
	c0,1.201,0.27,2.291,0.81,3.271s1.33,1.75,2.37,2.311c1.04,0.561,2.259,0.84,3.66,0.84c1.32,0,2.58-0.211,3.78-0.631
	c1.2-0.42,2.08-0.789,2.64-1.109c0.48-0.279,0.86-0.451,1.14-0.51c0.279-0.061,0.579,0.229,0.9,0.869l1.26,2.52
	c0.24,0.441,0.3,0.75,0.18,0.932c-0.12,0.18-0.38,0.41-0.78,0.689c-1.401,0.959-3.081,1.66-5.04,2.102
	c-1.96,0.438-3.921,0.658-5.88,0.658c-2.601,0-4.74-0.381-6.42-1.141c-1.68-0.76-2.98-1.818-3.9-3.18
	c-0.92-1.359-1.57-2.93-1.95-4.709C68.854,153.359,68.663,151.473,68.663,149.469z M85.523,146.109c0-1.119-0.141-2.078-0.42-2.88
	c-0.28-0.8-0.73-1.419-1.35-1.86c-0.621-0.438-1.45-0.66-2.49-0.66c-0.84,0-1.551,0.16-2.13,0.48c-0.581,0.32-1.05,0.74-1.41,1.26
	c-0.36,0.521-0.64,1.09-0.84,1.711c-0.201,0.621-0.34,1.209-0.42,1.771c-0.041,0.641-0.041,1.029,0,1.17
	c0.039,0.141,0.2,0.209,0.48,0.209h7.86c0.36,0,0.579-0.061,0.66-0.182C85.543,147.01,85.563,146.67,85.523,146.109z"/>
<path fill="#9CA3AF" d="M108.923,163.689c-2.721,0-4.75-0.57-6.09-1.709c-1.341-1.141-2.23-2.73-2.67-4.771
	c-0.321-1.68-0.49-3.398-0.51-5.16c-0.021-1.76-0.03-3.539-0.03-5.34c0-1.16,0.009-2.18,0.03-3.061c0.02-0.88,0.05-1.859,0.09-2.939
	c0-0.398-0.18-0.601-0.54-0.601h-2.46c-0.321,0-0.531-0.039-0.63-0.12c-0.1-0.078-0.15-0.318-0.15-0.72v-3
	c0-0.479,0.05-0.75,0.15-0.812c0.1-0.06,0.37-0.09,0.81-0.09h2.46c0.32,0,0.5-0.08,0.54-0.24c0.04-0.158,0.08-0.42,0.12-0.778
	l0.24-4.5c0-0.479,0.24-0.722,0.72-0.722h6c0.2,0,0.399,0.07,0.6,0.211c0.2,0.141,0.279,0.311,0.24,0.511l-0.3,4.5
	c-0.041,0.479-0.03,0.771,0.03,0.868c0.06,0.103,0.21,0.15,0.45,0.15h5.04c0.399,0,0.639,0.051,0.72,0.15
	c0.08,0.1,0.12,0.391,0.12,0.87v2.819c0,0.399-0.06,0.649-0.18,0.75c-0.12,0.101-0.381,0.149-0.78,0.149h-4.98
	c-0.24,0-0.411,0.069-0.51,0.21c-0.101,0.141-0.15,0.352-0.15,0.631c-0.04,1.04-0.081,2.09-0.12,3.15
	c-0.041,1.061-0.06,2.148-0.06,3.27c0,1.4,0.03,2.811,0.09,4.23c0.06,1.418,0.229,2.789,0.51,4.107
	c0.24,0.762,0.579,1.301,1.02,1.621c0.439,0.32,1.02,0.48,1.74,0.48c0.48,0,0.939-0.07,1.38-0.211c0.44-0.141,0.819-0.25,1.14-0.33
	c0.48-0.279,0.78-0.369,0.9-0.27c0.12,0.098,0.26,0.35,0.42,0.75l1.02,3.6c0.16,0.279,0.12,0.529-0.12,0.75
	c-0.24,0.221-0.72,0.471-1.44,0.75c-0.48,0.16-1,0.311-1.56,0.449c-0.561,0.141-1.121,0.24-1.68,0.301
	C109.983,163.66,109.443,163.689,108.923,163.689z"/>
<path fill="#9CA3AF" d="M130.282,164.109c-2.04,0-3.95-0.23-5.73-0.689c-1.78-0.459-3.22-1.35-4.32-2.67
	c-1.101-1.318-1.65-3.24-1.65-5.76c0-2.08,0.39-3.789,1.17-5.131c0.78-1.34,1.779-2.369,3-3.09c1.22-0.721,2.49-1.209,3.81-1.471
	c1.32-0.26,2.5-0.389,3.54-0.389c0.84,0,1.65,0.029,2.43,0.09c0.78,0.061,1.51,0.148,2.19,0.27c0.36,0.121,0.54-0.141,0.54-0.779
	c0-1.48-0.45-2.521-1.35-3.121c-0.9-0.6-2.151-0.9-3.75-0.9c-1.521,0-2.97,0.281-4.35,0.842c-1.38,0.561-2.55,1.08-3.51,1.561
	c-0.44,0.239-0.73,0.319-0.87,0.239c-0.141-0.079-0.25-0.34-0.33-0.778l-0.54-3.361c-0.081-0.52-0.081-0.859,0-1.02
	c0.08-0.16,0.3-0.359,0.66-0.601c1.04-0.681,2.359-1.229,3.96-1.649c1.599-0.42,3.3-0.631,5.1-0.631c2.72,0,4.899,0.311,6.54,0.932
	c1.64,0.619,2.87,1.449,3.69,2.488c0.82,1.041,1.359,2.23,1.62,3.57c0.26,1.341,0.39,2.729,0.39,4.17
	c0.04,1.682,0.05,3.33,0.03,4.951c-0.021,1.617-0.07,3.229-0.15,4.828c-0.081,1.602-0.201,3.223-0.36,4.859
	c-0.081,0.441-0.201,0.771-0.36,0.99c-0.161,0.221-0.48,0.451-0.96,0.689c-0.561,0.281-1.301,0.512-2.22,0.689
	c-0.92,0.182-1.911,0.342-2.97,0.479c-1.06,0.143-2.05,0.24-2.97,0.303C131.642,164.08,130.883,164.109,130.282,164.109z
	 M130.762,159.49c0.32,0,0.68-0.021,1.08-0.061c0.399-0.039,0.8-0.129,1.2-0.27c0.399-0.141,0.729-0.311,0.99-0.512
	c0.26-0.199,0.41-0.459,0.45-0.779c0.12-0.959,0.219-2.02,0.3-3.18c0.08-1.16,0.08-2.279,0-3.359c0-0.52-0.2-0.881-0.6-1.08
	c-0.4-0.279-0.971-0.451-1.71-0.512c-0.741-0.059-1.35-0.09-1.83-0.09c-0.36,0-0.81,0.07-1.35,0.211s-1.05,0.391-1.53,0.75
	c-0.48,0.357-0.87,0.898-1.17,1.619s-0.45,1.641-0.45,2.76c0,0.881,0.18,1.662,0.54,2.342c0.36,0.68,0.879,1.209,1.56,1.59
	C128.922,159.301,129.762,159.49,130.762,159.49z"/>
<path fill="#9CA3AF" d="M146.241,161.59c0.2-2.119,0.759-4.199,1.68-6.238c0.919-2.041,2-4.061,3.24-6.063
	c0.841-1.32,1.71-2.6,2.61-3.84c0.898-1.238,1.789-2.4,2.67-3.48c0.119-0.118,0.188-0.238,0.211-0.358
	c0.02-0.12-0.111-0.219-0.393-0.3h-7.979c-0.321,0-0.531-0.04-0.63-0.12c-0.101-0.08-0.15-0.319-0.15-0.722v-4.198
	c0-0.479,0.05-0.75,0.15-0.812c0.099-0.06,0.369-0.09,0.81-0.09h16.921c0.439,0,0.689,0.082,0.75,0.24
	c0.059,0.16,0.09,0.441,0.09,0.84v3.66c0,0.24-0.07,0.531-0.211,0.87c-0.141,0.341-0.471,0.69-0.99,1.05
	c-0.6,0.4-1.26,0.99-1.979,1.77c-0.721,0.781-1.432,1.633-2.131,2.553s-1.41,1.881-2.129,2.879c-0.881,1.359-1.711,2.711-2.49,4.051
	c-0.781,1.34-1.41,2.57-1.891,3.688c-0.041,0.162-0.029,0.342,0.029,0.541c0.061,0.201,0.271,0.301,0.631,0.301h10.439
	c0.359,0,0.561,0.061,0.6,0.18c0.039,0.121,0.061,0.381,0.061,0.781v4.197c0,0.322-0.07,0.521-0.209,0.602
	c-0.143,0.082-0.451,0.121-0.932,0.121h-17.819c-0.4,0-0.681-0.109-0.84-0.33C146.201,163.143,146.161,162.549,146.241,161.59z"/>
<path fill="#9CA3AF" d="M182.842,164.17c-3.479,0-6.17-0.648-8.068-1.951c-1.9-1.299-3.223-3.059-3.961-5.277
	c-0.74-2.223-1.109-4.75-1.109-7.59c0-2.762,0.42-5.23,1.26-7.411s2.209-3.899,4.109-5.159c1.898-1.261,4.49-1.891,7.77-1.891
	c3.32,0,5.932,0.63,7.83,1.891c1.9,1.26,3.26,2.979,4.08,5.159s1.23,4.649,1.23,7.411c0,2.801-0.359,5.311-1.08,7.527
	c-0.721,2.223-2.031,3.99-3.93,5.313C189.072,163.51,186.361,164.17,182.842,164.17z M182.781,158.289
	c1.961,0,3.34-0.758,4.141-2.279c0.799-1.52,1.199-3.658,1.199-6.42c0-2.76-0.43-4.85-1.289-6.271
	c-0.861-1.419-2.211-2.13-4.051-2.13c-1.799,0-3.129,0.711-3.99,2.13c-0.859,1.421-1.289,3.511-1.289,6.271
	c0,2.801,0.391,4.949,1.17,6.449S180.822,158.289,182.781,158.289z"/>
<path fill="#9CA3AF" d="M210.322,135.129c3.039,0,5.539,0.441,7.5,1.32c0.398,0.16,0.629,0.32,0.689,0.48s0.068,0.381,0.029,0.66
	l-1.08,3.72c-0.08,0.319-0.18,0.51-0.299,0.569c-0.121,0.061-0.361,0.031-0.721-0.09c-0.682-0.199-1.439-0.351-2.279-0.449
	c-0.842-0.1-1.48-0.15-1.922-0.15c-0.641,0-1.182,0.029-1.619,0.09c-0.441,0.061-0.779,0.131-1.021,0.211
	c-0.238,0.08-0.439,0.16-0.6,0.239c-0.16,0.12-0.33,0.261-0.51,0.42c-0.182,0.16-0.271,0.521-0.271,1.08v19.2
	c0,0.561-0.08,0.91-0.238,1.051c-0.16,0.141-0.441,0.209-0.842,0.209h-5.818c-0.201,0-0.381-0.061-0.541-0.18s-0.24-0.4-0.24-0.84
	v-24c0-0.641,0.07-1.051,0.211-1.23c0.139-0.18,0.43-0.369,0.869-0.57c1.201-0.56,2.631-0.99,4.291-1.289
	C207.57,135.279,209.041,135.129,210.322,135.129z"/>
<path fill="#9CA3AF" d="M220.461,149.949c0.08-3.039,0.49-5.52,1.23-7.439c0.738-1.92,1.697-3.42,2.879-4.5
	c1.18-1.079,2.488-1.819,3.93-2.221c1.441-0.397,2.9-0.6,4.381-0.6c0.561,0,1.199,0.061,1.92,0.18
	c0.721,0.121,1.279,0.221,1.682,0.301c0.277,0.08,0.51,0.101,0.688,0.061c0.182-0.04,0.271-0.221,0.271-0.54
	c0-0.722-0.012-1.479-0.029-2.278c-0.021-0.802-0.061-1.611-0.121-2.432c-0.059-0.818-0.129-1.641-0.209-2.46
	s-0.15-1.601-0.211-2.34c-0.061-0.74-0.129-1.41-0.209-2.011c-0.08-0.68-0.051-1.08,0.09-1.201c0.139-0.118,0.391-0.18,0.75-0.18
	h5.76c0.279,0,0.512,0.021,0.689,0.062c0.18,0.04,0.291,0.2,0.33,0.479c0.16,1.641,0.301,3.551,0.42,5.729
	c0.121,2.181,0.221,4.521,0.301,7.021s0.129,5.01,0.15,7.529c0.02,2.52,0,4.941-0.063,7.26c-0.059,2.32-0.16,4.381-0.299,6.18
	c-0.141,1.803-0.33,3.182-0.57,4.143c-0.119,0.479-0.291,0.84-0.51,1.08c-0.221,0.238-0.771,0.52-1.65,0.84
	c-0.76,0.32-1.979,0.648-3.658,0.99c-1.682,0.34-3.521,0.51-5.521,0.51c-1.561-0.041-3.01-0.23-4.35-0.57
	c-1.342-0.34-2.512-0.889-3.512-1.648c-1.52-1.08-2.66-2.611-3.42-4.592S220.461,152.869,220.461,149.949z M228.322,150.01
	c-0.041,2.762,0.289,4.709,0.988,5.852c0.699,1.141,1.592,1.791,2.672,1.949c0.479,0.16,0.988,0.25,1.527,0.271
	c0.541,0.02,1.08-0.021,1.621-0.121c0.539-0.1,1.01-0.229,1.41-0.391c0.119-0.078,0.209-0.168,0.271-0.271
	c0.059-0.098,0.09-0.248,0.09-0.447c0.039-0.879,0.09-1.803,0.148-2.762c0.061-0.961,0.1-1.92,0.119-2.881
	c0.021-0.959,0.051-1.92,0.09-2.879c0.041-0.961,0.07-1.881,0.092-2.76c0.02-0.881,0.01-1.701-0.029-2.461
	c0-0.279-0.031-0.47-0.09-0.57c-0.063-0.1-0.172-0.17-0.33-0.209c-0.521-0.199-1.131-0.369-1.83-0.511
	c-0.701-0.14-1.291-0.21-1.771-0.21c-0.479,0-1.01,0.102-1.59,0.301s-1.121,0.58-1.619,1.139c-0.502,0.562-0.912,1.393-1.23,2.49
	C228.541,146.643,228.361,148.131,228.322,150.01z"/>
<path fill="#9CA3AF" d="M257.961,161.529c0,1.041-0.25,1.83-0.75,2.371c-0.502,0.539-1.57,0.809-3.211,0.809
	c-1.359,0-2.35-0.27-2.969-0.809c-0.621-0.541-0.932-1.33-0.932-2.371c0-1.039,0.311-1.83,0.932-2.369
	c0.619-0.541,1.607-0.811,2.969-0.811c1.641,0,2.709,0.27,3.211,0.811C257.711,159.699,257.961,160.49,257.961,161.529z"/>
<path fill="#9CA3AF" d="M271.1,127.629c0,1.201-0.26,2.111-0.779,2.73c-0.521,0.621-1.602,0.93-3.24,0.93
	c-1.559,0-2.629-0.309-3.209-0.93c-0.58-0.619-0.871-1.529-0.871-2.73c0-1.039,0.291-1.889,0.871-2.549s1.65-0.99,3.209-0.99
	c1.721,0,2.82,0.33,3.301,0.99S271.1,126.59,271.1,127.629z M270.92,162.969c0,0.48-0.279,0.723-0.84,0.723h-6.119
	c-0.48,0-0.721-0.24-0.721-0.723V136.09c0-0.479,0.24-0.721,0.721-0.721h6.119c0.561,0,0.84,0.24,0.84,0.721V162.969z"/>
<path fill="#9CA3AF" d="M288.26,164.17c-3.479,0-6.17-0.648-8.068-1.951c-1.9-1.299-3.223-3.059-3.961-5.277
	c-0.74-2.223-1.109-4.75-1.109-7.59c0-2.762,0.42-5.23,1.26-7.411s2.209-3.899,4.109-5.159c1.898-1.261,4.49-1.891,7.77-1.891
	c3.32,0,5.932,0.63,7.83,1.891c1.9,1.26,3.26,2.979,4.08,5.159s1.23,4.649,1.23,7.411c0,2.801-0.359,5.311-1.08,7.527
	c-0.721,2.223-2.029,3.99-3.93,5.313C294.49,163.51,291.779,164.17,288.26,164.17z M288.199,158.289c1.959,0,3.34-0.758,4.141-2.279
	c0.799-1.52,1.199-3.658,1.199-6.42c0-2.76-0.43-4.85-1.289-6.271c-0.861-1.419-2.211-2.13-4.051-2.13
	c-1.799,0-3.129,0.711-3.99,2.13c-0.859,1.421-1.289,3.511-1.289,6.271c0,2.801,0.391,4.949,1.17,6.449
	S286.24,158.289,288.199,158.289z"/>
</svg>
